<svg width="21" height="21" viewBox="0 0 21 21" fill="none" xmlns="http://www.w3.org/2000/svg">
<path d="M10.5064 5.21651V18.933M10.5064 5.21651H6.78093C6.22853 5.21651 5.70183 4.99797 5.31643 4.59946C4.93103 4.20095 4.71264 3.66103 4.71264 3.10825C4.71264 2.55548 4.93103 2.01556 5.31643 1.61705C5.70183 1.21854 6.22853 1 6.78093 1C9.68425 1 10.5064 5.21651 10.5064 5.21651ZM10.5064 5.21651H14.2319C14.7843 5.21651 15.311 4.99797 15.6964 4.59946C16.0818 4.20095 16.3002 3.66103 16.3002 3.10825C16.3002 2.55548 16.0818 2.01556 15.6964 1.61705C15.311 1.21854 14.7843 1 14.2319 1C11.3286 1 10.5064 5.21651 10.5064 5.21651ZM3.11968 10.5H17.8932V16.6191C17.8932 17.8018 17.8932 18.3931 17.6619 18.843C17.4564 19.2415 17.1352 19.5629 16.737 19.7686C16.2874 20 15.6964 20 14.5145 20H6.49831C5.31643 20 4.72549 20 4.27586 19.7686C3.87762 19.5629 3.55646 19.2415 3.35091 18.843C3.11968 18.3931 3.11968 17.8018 3.11968 16.6191V10.5ZM2.69574 10.5H18.3043C18.8952 10.5 19.1907 10.5 19.4219 10.3843C19.6146 10.2815 19.7816 10.1272 19.8844 9.92152C20 9.69012 20 9.39445 20 8.80311V6.90054C20 6.3092 20 6.01353 19.8844 5.78214C19.7816 5.58931 19.6274 5.42219 19.4219 5.31935C19.1907 5.20365 18.8952 5.20365 18.3043 5.20365H2.69574C2.1048 5.20365 1.80933 5.20365 1.57809 5.31935C1.3854 5.42219 1.21839 5.57645 1.11562 5.78214C1 6.01353 1 6.3092 1 6.90054V8.80311C1 9.39445 1 9.69012 1.11562 9.92152C1.21839 10.1143 1.37255 10.2815 1.57809 10.3843C1.80933 10.5 2.1048 10.5 2.69574 10.5Z" stroke="#2C2C2C" stroke-width="1.3" stroke-linecap="round" stroke-linejoin="round"/>
</svg>
