<svg width="17" height="17" viewBox="0 0 17 17" fill="none" xmlns="http://www.w3.org/2000/svg">
<path d="M8.04001 3.93002V14.6M8.04001 3.93002H5.14001C4.71001 3.93002 4.30001 3.76002 4.00001 3.45002C3.70001 3.14002 3.53001 2.72002 3.53001 2.29002C3.53001 1.86002 3.70001 1.44002 4.00001 1.13002C4.30001 0.820024 4.71001 0.650024 5.14001 0.650024C7.40001 0.650024 8.04001 3.93002 8.04001 3.93002ZM8.04001 3.93002H10.94C11.37 3.93002 11.78 3.76002 12.08 3.45002C12.38 3.14002 12.55 2.72002 12.55 2.29002C12.55 1.86002 12.38 1.44002 12.08 1.13002C11.78 0.820024 11.37 0.650024 10.94 0.650024C8.68001 0.650024 8.04001 3.93002 8.04001 3.93002ZM2.29001 8.04002H13.79V12.8C13.79 13.72 13.79 14.18 13.61 14.53C13.45 14.84 13.2 15.09 12.89 15.25C12.54 15.43 12.08 15.43 11.16 15.43H4.92001C4.00001 15.43 3.54001 15.43 3.19001 15.25C2.88001 15.09 2.63001 14.84 2.47001 14.53C2.29001 14.18 2.29001 13.72 2.29001 12.8V8.04002ZM1.96001 8.04002H14.11C14.57 8.04002 14.8 8.04002 14.98 7.95002C15.13 7.87002 15.26 7.75002 15.34 7.59002C15.43 7.41002 15.43 7.18002 15.43 6.72002V5.24002C15.43 4.78002 15.43 4.55002 15.34 4.37002C15.26 4.22002 15.14 4.09002 14.98 4.01002C14.8 3.92002 14.57 3.92002 14.11 3.92002H1.96001C1.50001 3.92002 1.27001 3.92002 1.09001 4.01002C0.940015 4.09002 0.810015 4.21002 0.730015 4.37002C0.640015 4.55002 0.640015 4.78002 0.640015 5.24002V6.72002C0.640015 7.18002 0.640015 7.41002 0.730015 7.59002C0.810015 7.74002 0.930015 7.87002 1.09001 7.95002C1.27001 8.04002 1.50001 8.04002 1.96001 8.04002Z" stroke="#B5B8C2" stroke-width="1.3" stroke-linecap="round" stroke-linejoin="round"/>
</svg>
