<svg width="22" height="22" viewBox="0 0 22 22" fill="none" xmlns="http://www.w3.org/2000/svg">
<path d="M11.1869 5.51526V20.2036M11.1869 5.51526H7.19472C6.60278 5.51526 6.03837 5.28124 5.62539 4.85449C5.21241 4.42775 4.97839 3.84957 4.97839 3.25763C4.97839 2.66569 5.21241 2.08752 5.62539 1.66077C6.03837 1.23402 6.60278 1 7.19472 1C10.3058 1 11.1869 5.51526 11.1869 5.51526ZM11.1869 5.51526H15.179C15.771 5.51526 16.3354 5.28124 16.7484 4.85449C17.1613 4.42775 17.3954 3.84957 17.3954 3.25763C17.3954 2.66569 17.1613 2.08752 16.7484 1.66077C16.3354 1.23402 15.771 1 15.179 1C12.0679 1 11.1869 5.51526 11.1869 5.51526ZM3.2714 11.1731H19.1024V17.7257C19.1024 18.9922 19.1024 19.6255 18.8546 20.1073C18.6343 20.534 18.2902 20.8782 17.8634 21.0984C17.3816 21.3462 16.7484 21.3462 15.4819 21.3462H6.89187C5.62539 21.3462 4.99215 21.3462 4.51034 21.0984C4.0836 20.8782 3.73944 20.534 3.51919 20.1073C3.2714 19.6255 3.2714 18.9922 3.2714 17.7257V11.1731ZM2.81712 11.1731H19.5429C20.1761 11.1731 20.4927 11.1731 20.7405 11.0492C20.947 10.9391 21.126 10.7739 21.2361 10.5536C21.36 10.3058 21.36 9.98923 21.36 9.35599V7.31862C21.36 6.68538 21.36 6.36876 21.2361 6.12097C21.126 5.91448 20.9608 5.73552 20.7405 5.62539C20.4927 5.5015 20.1761 5.5015 19.5429 5.5015H2.81712C2.18388 5.5015 1.86726 5.5015 1.61947 5.62539C1.41298 5.73552 1.23402 5.90071 1.12389 6.12097C1 6.36876 1 6.68538 1 7.31862V9.35599C1 9.98923 1 10.3058 1.12389 10.5536C1.23402 10.7601 1.39922 10.9391 1.61947 11.0492C1.86726 11.1731 2.18388 11.1731 2.81712 11.1731Z" stroke="#B5B8C2" stroke-width="1.3" stroke-linecap="round" stroke-linejoin="round"/>
</svg>
