<svg width="102" height="98" viewBox="0 0 102 98" fill="none" xmlns="http://www.w3.org/2000/svg">
<g clip-path="url(#clip0_1765_10883)">
<path d="M21.5756 19.6308C20.2547 20.6651 18.3833 22.4037 16.7762 25.0006C12.9014 31.2728 13.6279 37.7211 13.8921 39.8338C13.9361 40.1859 14.7287 45.9519 18.3393 51.1677C27.1677 63.8881 50.6808 70.1823 65.0792 60.609C66.9065 59.3986 74.2819 54.4909 76.1312 45.4677C76.9238 41.5724 76.4394 38.2052 75.9111 36.0705C75.5148 34.728 74.2379 31.0968 74.2379 31.0968C74.9644 25.5728 74.8103 21.4574 74.8103 21.4574C74.8103 21.4574 74.6341 16.2636 72.4105 13.2266C72.2784 13.0285 72.0803 12.7864 71.7721 12.5883C71.3097 12.2802 69.8347 11.488 65.4535 13.6667C60.4779 16.1316 58.0341 19.3227 55.7885 18.3763C55.7444 18.3763 55.7444 18.3763 55.6564 18.3103C55.6564 18.3103 51.9797 16.6377 42.9311 15.0312C42.9311 15.0312 41.0818 11.51 38.572 7.72465C37.9996 6.86635 37.7134 6.4262 37.229 5.80998C35.5998 3.76327 33.5523 1.21039 31.5709 1.12236C26.6834 0.946297 22.3682 16.2416 22.082 17.386C22.082 17.452 21.5096 19.6528 21.5096 19.6528L21.5756 19.6308Z" fill="white"/>
<path d="M20.7831 18.8385C10.4136 27.1794 10.4136 42.6288 18.1632 52.7083C25.9128 62.7878 40.0471 67.3874 52.2439 66.0889C63.384 64.9005 74.6782 57.3959 77.166 45.9079C77.9145 42.4747 77.9145 38.6674 76.8578 35.2782C76.4615 33.9798 75.9991 32.6813 75.5368 31.4049C75.3387 30.8327 75.3827 30.6346 75.4707 29.9964C75.6249 28.896 75.6909 27.7736 75.779 26.6512C76.0872 22.1397 76.1753 17.0339 73.6875 13.0725C70.341 7.76868 62.5914 13.9748 59.2009 16.1976C58.4084 16.7038 57.3076 17.5621 56.3169 17.342C56.0747 17.276 55.7224 17.0999 55.4582 16.9899C53.4768 16.2196 51.4073 15.6694 49.3598 15.1853C47.3123 14.7011 45.3089 14.2829 43.2834 13.9308L43.9439 14.437C42.2927 11.2899 40.4654 8.09879 38.2858 5.30382C36.4584 2.927 33.4202 -1.23245 29.9197 0.396118C27.6961 1.43048 26.2651 3.98336 25.2083 6.07409C23.9093 8.62697 22.8966 11.3119 21.994 14.0188C21.4215 15.7795 20.9592 17.5401 20.4969 19.3227C20.1446 20.6872 22.2802 21.2814 22.6104 19.9169C23.7332 15.5594 25.0322 11.2019 27.0796 7.19648C27.8282 5.72197 29.5014 2.09071 31.5929 2.22275C33.5744 2.33279 35.5118 5.32583 36.5905 6.75632C38.0656 8.715 39.3425 10.8718 40.5534 13.0065C41.0378 13.8428 41.5882 15.5594 42.5128 16.0215C43.4375 16.4837 45.0006 16.5057 46.0794 16.7478C47.2022 16.9899 48.3471 17.232 49.4479 17.5181C50.8569 17.8702 52.2659 18.2663 53.6529 18.7285C54.0052 18.8605 54.3795 18.9706 54.7317 19.1026C54.9299 19.1686 55.3482 19.3447 55.0619 19.2347C57.7479 20.335 59.9715 18.3323 62.1071 16.9018C64.1105 15.5594 66.2461 14.2169 68.5798 13.5567C69.3723 13.3366 70.5832 13.0945 71.1336 13.4907C72.4986 14.503 73.005 17.0559 73.3132 18.6184C73.5113 19.5648 73.6434 20.5111 73.6654 21.4794C73.7095 22.5578 73.6654 23.6582 73.6214 24.7366C73.5774 25.8149 73.5113 26.8053 73.4233 27.8396C73.3352 28.94 72.9169 30.3265 73.115 31.4049C73.3572 32.6813 74.0177 34.0018 74.436 35.2342C75.0304 37.0388 75.3387 38.8655 75.3827 40.7581C75.4928 45.3797 73.9517 49.8253 71.1776 53.5005C62.2392 65.2746 45.7052 66.353 32.8698 60.9611C25.5385 57.8801 19.1539 52.5982 16.3358 45.0056C15.7855 43.4871 15.3231 41.9245 15.0369 40.34C15.0149 40.1639 14.9709 39.9879 14.9488 39.8338C14.8828 39.4157 14.9709 40.0539 14.9268 39.6797C14.8388 39.0415 14.7947 38.4253 14.7507 37.7871C14.5085 33.3415 15.4772 28.896 17.943 25.1327C19.1319 23.3281 20.6069 21.7655 22.2802 20.4231C23.381 19.5428 21.8178 17.9802 20.717 18.8605L20.7831 18.8385Z" fill="#040000"/>
<path d="M16.7321 51.0357C9.5109 52.3342 3.45651 58.4523 1.43104 65.3407C0.462334 68.5978 -0.308225 72.3391 0.15411 75.7283C0.616445 79.1174 1.43104 81.8904 3.21433 84.7074C6.29657 89.5711 10.964 92.212 16.534 93.4004C20.2327 94.1927 23.9754 94.0386 27.7401 94.2807C33.4202 94.6328 39.0343 95.183 44.7365 95.227C52.1558 95.2931 59.6853 94.8529 67.0166 93.7305C72.3005 92.9382 77.0559 91.1776 81.4151 88.0746C85.7742 84.9715 89.4509 81.2962 90.9039 76.2565C92.6652 70.1824 90.1114 63.9102 85.6641 59.7067C81.7673 56.0314 76.1532 54.2488 70.8474 54.887C69.4604 55.0631 69.4384 57.2639 70.8474 57.0878C79.984 55.9874 89.8692 63.2279 89.2748 73.0213C88.9665 78.1491 85.3779 82.3086 81.5031 85.3236C77.8485 88.1406 73.8636 90.1433 69.3283 91.1116C62.8996 92.4761 56.0747 92.8502 49.5359 93.0043C44.054 93.1363 38.55 93.0043 33.09 92.4981C30.1619 92.234 27.2117 92.0359 24.2616 91.9259C22.8966 91.8819 21.5316 91.9259 20.1666 91.7938C16.1157 91.3757 11.7565 90.1873 8.5422 87.6344C6.23052 85.7858 4.35916 82.9028 3.32441 80.1298C2.04748 76.7406 2.09152 73.1314 2.70796 69.6322C3.36844 65.8689 4.53529 62.1496 7.15519 59.2666C9.77509 56.3836 13.3417 53.8967 17.3046 53.1925C18.6916 52.9504 18.0971 50.8156 16.7101 51.0797L16.7321 51.0357Z" fill="#040000"/>
<path d="M38.0216 33.2535C39.7609 33.6277 41.5001 34.0018 43.2394 34.3759L38.0216 33.2535Z" fill="white"/>
<path d="M37.7354 34.3099C39.4746 34.684 41.2139 35.0581 42.9532 35.4323C43.5256 35.5423 44.164 35.2562 44.3181 34.662C44.4502 34.1118 44.142 33.4296 43.5476 33.2975C41.8083 32.9234 40.0691 32.5493 38.3298 32.1751C37.7574 32.0651 37.1189 32.3512 36.9648 32.9454C36.8327 33.4956 37.1409 34.1778 37.7354 34.3099Z" fill="#040000"/>
<path d="M52.8383 35.8284C54.6877 36.1806 56.537 36.5107 58.3644 36.8628L52.8383 35.8284Z" fill="white"/>
<path d="M52.5521 36.8848C54.4015 37.2369 56.2508 37.567 58.0781 37.9192C58.6506 38.0292 59.289 37.7651 59.4431 37.1489C59.5752 36.5987 59.289 35.9165 58.6726 35.7844C56.8232 35.4323 54.9739 35.1022 53.1466 34.7501C52.5742 34.64 51.9357 34.9041 51.7816 35.5203C51.6495 36.0705 51.9357 36.7527 52.5521 36.8848Z" fill="#040000"/>
<path d="M45.9033 40.538C46.6959 39.9218 47.0261 41.1542 46.2996 41.5724C45.8373 41.8365 44.8465 41.4844 44.7144 40.9562C44.3402 39.5477 46.4317 39.6797 47.0702 40.362L46.7179 40.516" fill="white"/>
<path d="M46.4537 41.4844C46.4537 41.4844 46.5858 41.3963 46.6739 41.3523L46.4097 41.4624C46.4097 41.4624 46.4977 41.4404 46.5418 41.4183L46.2556 41.4624C46.2556 41.4624 46.3216 41.4624 46.3656 41.4624L46.0794 41.4183C46.0794 41.4183 46.1455 41.4183 46.1675 41.4404L45.9033 41.3303C45.9033 41.3303 45.9473 41.3523 45.9694 41.3743L45.7492 41.1983C45.7492 41.1983 45.7932 41.2423 45.8152 41.2643L45.6391 41.0442C45.6391 41.0442 45.6832 41.1102 45.7052 41.1543L45.5951 40.8902C45.5951 40.8902 45.6171 40.9782 45.6391 41.0442L45.5951 40.7581C45.5951 40.7581 45.5951 40.8902 45.5951 40.9562L45.6391 40.6701C45.6391 40.6701 45.6171 40.8241 45.5731 40.8902L45.6832 40.6261C45.6832 40.6261 45.6171 40.7361 45.5951 40.7801L45.7712 40.5601C45.7712 40.5601 45.6832 40.6701 45.6171 40.7141L45.8373 40.538C45.8373 40.538 45.7492 40.6041 45.6832 40.6261L45.9473 40.516C45.9473 40.516 45.8153 40.5601 45.7492 40.5601L46.0354 40.516C46.0354 40.516 45.8153 40.516 45.7052 40.516L45.9914 40.5601C45.8373 40.5601 45.7052 40.494 45.5731 40.45L45.8373 40.5601C45.7272 40.516 45.6171 40.45 45.529 40.384L45.7492 40.5601C45.7492 40.5601 45.6171 40.45 45.5731 40.384L45.7492 40.6041C45.7492 40.6041 45.6832 40.516 45.6611 40.472L45.7712 40.7361C45.7712 40.7361 45.7272 40.5821 45.7052 40.494L45.7492 40.7801C45.7492 40.7801 45.7492 40.6041 45.7492 40.516L45.7052 40.8021C45.7052 40.8021 45.7272 40.6701 45.7492 40.6261L45.6391 40.8902C45.6391 40.8902 45.6832 40.8021 45.7272 40.7581L45.5511 40.9782C45.5511 40.9782 45.6391 40.8902 45.6832 40.8462L45.463 41.0222C45.463 41.0222 45.5731 40.9342 45.6611 40.9122L45.3969 41.0222C45.3969 41.0222 45.6171 40.9562 45.7492 40.9342L45.463 40.9782C45.6391 40.9562 45.8152 40.9782 45.9914 40.9782L45.7052 40.9342C45.9033 40.9562 46.1015 41.0222 46.2996 41.0882L46.0354 40.9782C46.1675 41.0442 46.2996 41.1102 46.4097 41.1763L46.1895 41.0002C46.1895 41.0002 46.2776 41.0662 46.3216 41.1102L46.5418 39.3716L46.1895 39.5257C45.9473 39.6357 45.7492 39.9438 45.6832 40.1859C45.6171 40.45 45.6391 40.8021 45.7932 41.0442C45.9473 41.2863 46.1675 41.4844 46.4537 41.5504L46.7399 41.5944C46.9381 41.5944 47.1142 41.5504 47.2903 41.4404L47.6426 41.2863C47.9508 41.1543 48.1269 40.8021 48.171 40.472C48.215 40.1199 48.1049 39.7898 47.8627 39.5477C47.3344 39.0195 46.5638 38.7774 45.8373 38.7334C45.0667 38.6894 44.1641 38.9975 43.7898 39.7238C43.5476 40.1859 43.5036 40.7361 43.6797 41.2423C43.8558 41.7485 44.2741 42.2106 44.7805 42.4307C45.2869 42.6508 45.9033 42.8048 46.4977 42.6288C47.1142 42.4527 47.5545 41.9685 47.7527 41.3743C47.9508 40.7801 47.7967 40.0759 47.3784 39.6577C46.85 39.1296 45.9694 39.1075 45.3969 39.5477C45.2649 39.6137 45.1548 39.7018 45.0887 39.8338C45.0007 39.9438 44.9346 40.0539 44.8906 40.2079C44.8245 40.472 44.8465 40.8241 45.0007 41.0662C45.1548 41.3083 45.3749 41.5064 45.6611 41.5724C45.9473 41.6384 46.2776 41.6384 46.5198 41.4624L46.4537 41.4844Z" fill="#040000"/>
<path d="M45.3089 40.8462C45.5951 41.7265 45.4189 43.5091 44.8906 44.2574L45.3089 40.8462Z" fill="white"/>
<path d="M44.2521 41.1323C44.2961 41.2863 44.3182 41.4184 44.3402 41.5724L44.2962 41.2863C44.3622 41.7705 44.3402 42.2547 44.2962 42.7388L44.3402 42.4527C44.2961 42.8269 44.2081 43.223 44.054 43.5751L44.1641 43.311C44.098 43.4431 44.032 43.5751 43.9439 43.7072C43.7898 43.9273 43.7678 44.3014 43.8338 44.5655C43.8999 44.8296 44.098 45.0937 44.3402 45.2257C44.8906 45.5118 45.507 45.3357 45.8373 44.8296C46.2776 44.1913 46.4097 43.3771 46.4977 42.6508C46.5858 41.9686 46.5638 41.2423 46.3656 40.5821C46.1895 40.0319 45.5951 39.6358 45.0007 39.8118C44.4062 39.9879 44.054 40.5821 44.2301 41.1763L44.2521 41.1323Z" fill="#040000"/>
<path d="M44.098 45.0936C43.3274 45.2917 42.733 45.7979 42.0065 46.106L44.098 45.0936Z" fill="white"/>
<path d="M43.8118 44.0153C43.3495 44.1253 42.9091 44.3454 42.4908 44.5875C42.1386 44.7855 41.8083 44.9836 41.4561 45.1376C41.2139 45.2477 41.0158 45.5558 40.9497 45.7979C40.8837 46.062 40.9057 46.4141 41.0598 46.6562C41.2139 46.8983 41.4341 47.0963 41.7203 47.1624L42.0065 47.2064C42.2046 47.2064 42.3808 47.1623 42.5569 47.0523C43.1293 46.8102 43.6136 46.4361 44.1861 46.194L43.9219 46.3041C44.076 46.238 44.2301 46.194 44.3842 46.15C44.6484 46.084 44.9126 45.8859 45.0447 45.6438C45.1768 45.4017 45.2428 45.0496 45.1548 44.7855C45.0667 44.5214 44.9126 44.2573 44.6484 44.1253C44.3842 43.9932 44.098 43.9492 43.7898 44.0153H43.8118Z" fill="#040000"/>
<path d="M44.5823 44.9176C45.1327 45.952 46.7179 46.3261 47.7086 46.8103L44.5823 44.9176Z" fill="white"/>
<path d="M43.6357 45.4678C44.3402 46.7442 45.8373 47.1844 47.1142 47.7126L46.85 47.6025C46.85 47.6025 47.0481 47.6906 47.1582 47.7346C47.4224 47.8666 47.7086 47.9327 48.0168 47.8446C48.281 47.7786 48.5452 47.5805 48.6773 47.3385C48.8094 47.0744 48.8755 46.7663 48.7874 46.4802C48.6993 46.2161 48.5452 45.952 48.281 45.8199C47.7747 45.5778 47.2683 45.4018 46.7619 45.1817L47.0261 45.2917C46.5858 45.0937 46.1455 44.8956 45.7712 44.6095L45.9914 44.7856C45.8373 44.6535 45.6831 44.5215 45.5731 44.3674L45.7492 44.5875C45.7492 44.5875 45.6391 44.4114 45.5731 44.3234C45.2869 43.8172 44.5603 43.6192 44.076 43.9273C43.5916 44.2354 43.3715 44.8956 43.6797 45.4238L43.6357 45.4678Z" fill="#040000"/>
<path d="M46.1015 83.9372C47.2463 83.563 48.171 83.541 49.7341 83.541C50.7688 83.541 51.6935 83.585 52.7283 83.8051C53.3227 83.9152 54.6877 84.3553 55.9646 85.5657C56.3829 85.9619 57.3076 86.8422 57.7699 88.3607C57.858 88.6468 58.2983 90.0553 57.858 91.8379C57.5278 93.2244 56.8012 94.1927 56.3829 94.6769C56.0087 95.117 55.1941 95.9313 53.9391 96.4595C53.6529 96.5695 52.8163 96.8997 50.3505 96.9217C47.6866 96.9217 46.3216 96.9217 44.7585 96.1294C44.142 95.7993 43.1293 95.2491 42.4468 94.1047C41.9404 93.2244 41.8304 92.3881 41.7423 91.4858C41.6983 91.0236 41.6102 89.9893 41.8524 88.7128C41.9845 87.9425 42.0946 87.3263 42.4688 86.6441C43.4155 84.8835 45.3309 84.2673 46.1015 84.0032V83.9372Z" fill="white"/>
<path d="M46.3877 84.9935C47.9288 84.5093 49.646 84.5754 51.2312 84.6854C52.8163 84.7954 54.1153 85.3016 55.2601 86.402C57.2636 88.3167 57.5057 91.3977 55.8105 93.6425C54.2474 95.6892 52.1559 95.7552 49.8001 95.7552C47.2243 95.7552 43.7678 95.5132 43.0412 92.4321C42.667 90.8475 42.689 88.8669 43.3274 87.3703C43.8778 86.0719 45.1548 85.4116 46.4097 84.9935C47.7527 84.5534 47.1802 82.4186 45.8153 82.8808C44.2962 83.3869 42.8871 84.1352 41.9184 85.4337C40.7516 87.0182 40.4874 89.329 40.6635 91.2437C40.8617 93.4004 41.5221 95.2491 43.3715 96.5035C44.7145 97.4278 46.2556 97.846 47.8848 97.934C51.1651 98.1321 54.5996 98.1761 57.0214 95.6232C59.5973 92.9163 59.9275 88.6248 57.5938 85.6757C56.471 84.2452 54.8198 83.1229 53.0365 82.7487C51.6935 82.4626 50.3065 82.4406 48.9415 82.4626C47.8848 82.4626 46.85 82.5727 45.8373 82.8808C44.4943 83.2989 45.0667 85.4337 46.4317 84.9935H46.3877Z" fill="#040000"/>
<path d="M28.6208 83.0348C29.7656 82.6607 30.6903 82.6387 32.2534 82.6387C33.2881 82.6387 34.2128 82.6827 35.2476 82.9028C35.842 83.0128 37.207 83.453 38.4839 84.6634C38.9022 85.0595 39.8269 85.9398 40.2892 87.4583C40.3773 87.7444 40.8176 89.1529 40.3773 90.9356C40.0471 92.322 39.3205 93.2904 38.9022 93.7745C38.528 94.2147 37.7134 95.029 36.4584 95.5572C36.1722 95.6672 35.3356 95.9973 32.8698 96.0193C30.2059 96.0193 28.8409 96.0193 27.2778 95.227C26.6613 94.8969 25.6486 94.3467 24.9661 93.2023C24.4597 92.322 24.3497 91.4857 24.2616 90.5834C24.2176 90.1213 24.1295 89.0869 24.3717 87.8105C24.5038 87.0402 24.6139 86.424 24.9881 85.7417C25.9348 83.9811 27.8502 83.3649 28.6208 83.1008V83.0348Z" fill="white"/>
<path d="M28.929 84.0912C30.4701 83.607 32.1874 83.673 33.7725 83.7831C35.3577 83.8931 36.6566 84.3993 37.8014 85.4996C39.8049 87.4143 40.0471 90.4954 38.3518 92.7402C36.7887 94.7869 34.6972 94.8529 32.3415 94.8529C29.7656 94.8529 26.3091 94.6108 25.5826 91.5297C25.2083 89.9452 25.2303 87.9645 25.8688 86.468C26.4192 85.1695 27.6961 84.5093 28.951 84.0912C30.294 83.651 29.7216 81.5163 28.3566 81.9784C26.8375 82.4846 25.4284 83.2329 24.4597 84.5313C23.2929 86.1159 23.0287 88.4267 23.2048 90.3413C23.403 92.4981 24.0635 94.3467 25.9128 95.6012C27.2558 96.5255 28.7969 96.9436 30.4261 97.0317C33.7065 97.2297 37.1409 97.2737 39.5627 94.7209C42.1386 92.0139 42.4688 87.7224 40.1351 84.7734C39.0123 83.3429 37.3611 82.2205 35.5778 81.8464C34.2348 81.5603 32.8478 81.5383 31.4828 81.5603C30.4261 81.5603 29.3913 81.6703 28.3786 81.9784C27.0356 82.3966 27.608 84.5313 28.973 84.0912H28.929Z" fill="#040000"/>
<path d="M96.7162 20.247C97.3987 20.203 98.0812 20.115 98.7857 20.093C99.4902 20.071 100.151 20.093 100.833 20.049L99.8865 19.4988C100.019 19.6748 99.8204 19.2127 99.8204 19.1907C99.8204 19.1246 99.8204 18.9706 99.8204 19.1246C99.8204 19.0586 99.8865 18.9706 99.8204 19.1026C99.7984 19.1467 99.7764 19.1907 99.7544 19.2347C99.6223 19.4768 99.5122 19.7188 99.3801 19.9609C99.0719 20.5771 98.7416 21.1934 98.3894 21.7876C98.2133 22.0737 98.0151 22.3818 97.817 22.6679C97.7289 22.8219 97.6188 22.954 97.5308 23.108C97.4867 23.174 97.4427 23.2621 97.3767 23.3281C97.3767 23.3281 97.2225 23.5482 97.2886 23.4601C97.3546 23.3721 97.2446 23.5262 97.2225 23.5262C97.1785 23.5702 97.1345 23.6142 97.0904 23.6582C97.0024 23.7462 96.9143 23.8343 96.8263 23.9443C96.5841 24.2304 96.3639 24.5385 96.2979 24.9127C96.2318 25.3968 96.3419 25.903 96.8042 26.1451C97.1785 26.3431 97.5528 26.4092 97.9711 26.4532C98.0371 26.4532 98.1252 26.4532 98.1912 26.4532C98.0591 26.4532 98.1472 26.4532 98.2353 26.4532C98.4334 26.4972 98.6316 26.5412 98.8297 26.5852C99.1159 26.6292 99.3801 26.6072 99.6443 26.5852C99.7764 26.5852 99.8865 26.5852 100.019 26.5852C100.173 26.5852 99.8424 26.5412 99.9745 26.5852C100.063 26.6072 99.8424 26.4972 99.8204 26.4752C100.261 26.8493 100.965 26.9374 101.384 26.4752C101.758 26.057 101.846 25.3308 101.384 24.9127C100.789 24.3845 100.129 24.3625 99.3801 24.4065C99.3141 24.4065 99.27 24.4065 99.204 24.4065C99.204 24.4065 99.0279 24.4065 99.1159 24.4065C99.204 24.4065 98.9178 24.3625 98.9178 24.3625C98.8517 24.3625 98.7637 24.3184 98.6756 24.3184C98.4775 24.2744 98.2573 24.2524 98.0592 24.2524C98.0592 24.2524 97.7729 24.2304 97.883 24.2524C97.7069 24.1424 97.9931 24.2744 97.883 24.2524L98.3894 25.4848C98.4114 25.3748 98.3894 25.3748 98.3454 25.5289C98.3674 25.4849 98.4114 25.4188 98.4334 25.3748C98.3233 25.5289 98.4334 25.3748 98.4995 25.3088C98.6976 25.1107 98.8737 24.9127 99.0279 24.6926C99.3581 24.2304 99.6663 23.7683 99.9745 23.2841C100.569 22.3598 101.009 21.3914 101.538 20.4451C101.802 19.9389 102.066 19.4107 101.934 18.8385C101.846 18.4864 101.648 18.2003 101.34 18.0023C100.987 17.7822 100.547 17.8702 100.151 17.8922C99.6003 17.8922 99.0279 17.8922 98.4775 17.9362C97.883 17.9802 97.2666 18.0463 96.6721 18.0903C96.0777 18.1343 95.5493 18.5745 95.5713 19.1907C95.5934 19.7629 96.0557 20.3351 96.6721 20.291L96.7162 20.247Z" fill="#040000"/>
<path d="M89.1206 38.9975C89.7591 38.9975 90.3755 39.0856 91.014 39.1516C91.3002 39.1736 91.5864 39.1956 91.8726 39.1956C91.9607 39.1956 92.0488 39.1956 92.1368 39.1956C92.1588 39.1956 92.2029 39.1956 92.2249 39.1956C92.357 39.1956 91.9607 39.1296 92.1368 39.1956C91.8286 39.0855 91.6084 38.8215 91.5864 38.4913C91.5864 38.6674 91.5864 38.4913 91.5864 38.4473C91.5864 38.4913 91.5644 38.5574 91.5424 38.6014C91.5204 38.6894 91.3883 38.9535 91.4984 38.7554C91.4323 38.8655 91.3883 38.9755 91.3222 39.0855C91.058 39.5477 90.7498 39.9438 90.4416 40.362C90.3756 40.45 90.3315 40.5381 90.2655 40.6041C90.2214 40.6701 90.1774 40.7141 90.1334 40.7801C90.2434 40.6481 90.1334 40.7801 90.1114 40.8021C90.0233 40.9122 89.9132 41.0002 89.8251 41.1103C89.7811 41.1543 89.7151 41.2203 89.671 41.2423C89.7811 41.1763 89.671 41.1983 89.605 41.2423C89.3188 41.4184 89.0326 41.6824 88.8785 41.9906C88.5923 42.5187 88.7904 43.0689 89.1647 43.4871C89.7591 44.1693 90.7278 44.3894 91.5644 44.5214C91.9827 44.5875 92.423 44.6755 92.8413 44.7195C92.9734 44.7195 92.9294 44.6755 92.8634 44.7195C92.7753 44.7195 92.7753 44.7195 92.8634 44.7195H92.9294C93.0395 44.7415 93.1496 44.7635 93.2817 44.8075C93.3257 44.8075 93.3697 44.8295 93.4358 44.8515C93.6559 44.8956 93.4358 44.8736 93.4138 44.8295C93.4138 44.8295 93.5458 44.8956 93.5238 44.8956C93.4798 44.8956 93.3257 44.6975 93.4798 44.8956C93.8541 45.3357 94.6466 45.3137 95.0429 44.8956C95.4612 44.4334 95.4392 43.7952 95.0429 43.333C94.6907 42.9149 94.0962 42.7388 93.5899 42.6508C93.4137 42.6288 93.2156 42.6068 93.0395 42.5628C92.9734 42.5628 92.6432 42.5187 92.8413 42.5407C93.0395 42.5628 92.7753 42.5407 92.7313 42.5187C92.6432 42.5187 92.5771 42.4967 92.4891 42.4747C92.0708 42.4087 91.6745 42.3427 91.2562 42.2326C91.1461 42.2106 91.058 42.1666 90.948 42.1226C90.8159 42.0786 91.1241 42.2106 91.014 42.1446C90.97 42.1226 90.9259 42.1006 90.9039 42.0786C90.8819 42.0786 90.7939 41.9906 90.7718 41.9906C90.8599 41.9906 90.9039 42.1666 90.8599 42.0566C90.8599 42.0126 90.6838 41.9025 90.8379 42.0346C90.948 42.1446 90.8599 42.0566 90.8379 41.9906V43.0909C90.7278 43.157 90.7278 43.179 90.7939 43.135C90.948 43.0469 91.0801 42.9809 91.2122 42.8489C91.3663 42.7168 91.5424 42.5628 91.6745 42.4087C92.0047 42.0566 92.2689 41.6384 92.5331 41.2643C93.0395 40.5821 93.6119 39.8338 93.766 38.9975C93.8761 38.4253 93.8321 37.8091 93.3697 37.391C92.9954 37.0388 92.5331 36.9728 92.0488 36.9728C91.0801 36.9948 90.1334 36.7968 89.1647 36.7968C88.5923 36.7968 88.0419 37.3029 88.0639 37.8971C88.0859 38.4913 88.5482 38.9975 89.1647 38.9975H89.1206Z" fill="#040000"/>
</g>
<defs>
<clipPath id="clip0_1765_10883">
<rect width="102" height="98" fill="white"/>
</clipPath>
</defs>
</svg>
